<?xml version="1.0" encoding="utf-8"?>
<!-- Generator: Adobe Illustrator 21.0.2, SVG Export Plug-In . SVG Version: 6.00 Build 0)  -->
<svg version="1.1" id="Layer_1" xmlns="http://www.w3.org/2000/svg" xmlns:xlink="http://www.w3.org/1999/xlink" x="0px" y="0px"
	 viewBox="0 0 40 40" style="enable-background:new 0 0 40 40;" xml:space="preserve">
<g>
	<g>
		<path d="M27,10.8c-1,0-1.9,0.4-2.6,1.1c-1.4,1.4-1.4,3.7,0,5.1c0.7,0.7,1.6,1.1,2.6,1.1c1,0,1.9-0.4,2.6-1.1
			c1.4-1.4,1.4-3.7,0-5.1C28.9,11.2,28,10.8,27,10.8z M28.6,16c-0.4,0.4-1,0.6-1.6,0.6s-1.1-0.2-1.6-0.6c-0.9-0.9-0.9-2.3,0-3.1
			c0.4-0.4,1-0.6,1.6-0.6s1.1,0.2,1.6,0.6C29.5,13.8,29.5,15.2,28.6,16z M35.5,6.1c-0.4-0.4-0.9-0.6-1.5-0.6c-2.7,0.2-7.7,0.6-9.9,2
			c-2.9,1.7-5.7,5-8,8.1l-4.6,0.6c-0.9,0.1-1.7,0.7-2,1.5l-1.1,2.5c-0.1,0.2-0.1,0.4,0,0.6c0.1,0.2,0.3,0.3,0.5,0.4l3.1,0.6
			c-0.2,0.4-0.4,0.7-0.6,1c-0.4,0.7-0.3,1.7,0.3,2.3l0.2,0.2l-0.7,0.7c-0.7,0.7-0.7,2,0,2.7l1.7,1.7c0.4,0.4,0.8,0.6,1.4,0.6
			c0.5,0,1-0.2,1.4-0.6l0.7-0.7l0.2,0.2c0.4,0.4,0.8,0.6,1.3,0.6c0.3,0,0.6-0.1,0.9-0.2c0.3-0.2,0.6-0.4,1-0.6l0.6,3.1
			c0,0.2,0.2,0.4,0.4,0.5c0.1,0.1,0.2,0.1,0.3,0.1c0.1,0,0.2,0,0.3-0.1l2.5-1.1c0.8-0.4,1.4-1.1,1.5-2l0.6-4.6
			c3.1-2.3,6.4-5.2,8.1-8c1.4-2.3,1.8-7.2,2-9.9C36,7,35.9,6.5,35.5,6.1z M10,20l0.7-1.7c0.2-0.4,0.5-0.6,0.9-0.7l3.3-0.4
			c-0.8,1.2-1.5,2.3-2.1,3.3L10,20z M14.6,29.3c-0.2,0.2-0.5,0.2-0.7,0l-1.7-1.7c-0.2-0.2-0.2-0.5,0-0.7l0.7-0.7l2.4,2.4L14.6,29.3z
			 M23.9,29.9c-0.1,0.4-0.3,0.7-0.7,0.9l-1.7,0.7l-0.5-2.8c1-0.6,2.1-1.3,3.3-2.1L23.9,29.9z M32.8,16.7
			C29.6,22,20.7,27.4,18.1,28.9c-0.1,0-0.2,0.1-0.2,0.1c-0.1,0-0.3-0.1-0.3-0.1l-0.7-0.7c0,0,0,0,0,0l-3.4-3.4c0,0,0,0,0,0L12.7,24
			c-0.2-0.2-0.2-0.4-0.1-0.6c1.5-2.7,6.8-11.5,12.2-14.8C26.9,7.4,32,7,34.1,6.9h0c0.2,0,0.3,0.1,0.4,0.2c0.1,0.1,0.1,0.2,0.1,0.4
			C34.5,9.5,34.1,14.6,32.8,16.7z M8.6,29c-1,0-2,0.4-2.7,1.1c-1.4,1.4-1.4,5.4-1.4,6.2c0,0.4,0.3,0.7,0.7,0.7l0.1,0
			c1.4,0,4.8-0.1,6.1-1.4c0.7-0.7,1.1-1.7,1.1-2.7c0-1-0.4-2-1.1-2.7C10.6,29.4,9.7,29,8.6,29z M10.4,34.6c-0.6,0.6-2.6,0.9-4.5,1
			c0.1-1.7,0.4-3.8,1-4.5c0.5-0.5,1.1-0.7,1.7-0.7c0.7,0,1.3,0.3,1.7,0.7c0.5,0.5,0.7,1.1,0.7,1.7C11.1,33.5,10.8,34.2,10.4,34.6z"
			/>
	</g>
</g>
</svg>
