<?xml version="1.0" encoding="utf-8"?>
<!-- Generator: Adobe Illustrator 21.0.2, SVG Export Plug-In . SVG Version: 6.00 Build 0)  -->
<svg version="1.1" id="Layer_1" xmlns="http://www.w3.org/2000/svg" xmlns:xlink="http://www.w3.org/1999/xlink" x="0px" y="0px"
	 viewBox="0 0 40 40" style="enable-background:new 0 0 40 40;" xml:space="preserve">
<path d="M19.3,11.8l-5,12.4l7.2-2.2c0.6-0.2,1.1,0.3,1.1,0.9L21.9,30l5-12.4l-7.2,2.2c-0.6,0.2-1.1-0.3-1.1-0.9L19.3,11.8z
	 M13.1,26.3c-0.7,0.2-1.3-0.4-1-1.1L19.8,6c0.4-0.9,1.7-0.6,1.6,0.4l-1,11.4l7.7-2.4c0.7-0.2,1.3,0.4,1,1.1l-7.8,19.2
	c-0.4,0.9-1.7,0.6-1.6-0.4l1-11.4L13.1,26.3z"/>
</svg>
