<?xml version="1.0" encoding="utf-8"?>
<!-- Generator: Adobe Illustrator 21.0.2, SVG Export Plug-In . SVG Version: 6.00 Build 0)  -->
<svg version="1.1" id="Layer_1" xmlns="http://www.w3.org/2000/svg" xmlns:xlink="http://www.w3.org/1999/xlink" x="0px" y="0px"
	 viewBox="0 0 40 40" style="enable-background:new 0 0 40 40;" xml:space="preserve">
<path d="M9.9,34.9l0.7,0.6l0.4-0.9c0.2-0.6,0.5-1.2,0.8-1.8c1.2-2.3,2.7-4.4,4.7-6c0.3-0.2,0.6-0.5,0.9-0.6l0.9-0.5l-0.8-0.6
	c-0.5-0.4-1-0.9-1.4-1.5c-1.8-2.6-1.1-6.3,1.4-8.1c0.9-0.7,2-1,3.2-1c1.8,0,3.5,0.9,4.6,2.5c1.8,2.6,1.1,6.3-1.4,8.1l-0.9,0.6
	l0.9,0.5c0.3,0.2,0.6,0.4,0.9,0.6c2,1.6,3.5,3.7,4.7,6c0.3,0.6,0.6,1.2,0.8,1.8l0.4,0.9l0.7-0.6c3.3-3.1,5.1-7.5,5.1-12.1
	c0-9.1-7.1-16.5-15.8-16.5c-8.7,0-15.8,7.4-15.8,16.5C4.7,27.3,6.6,31.7,9.9,34.9z M20.5,7.6c8,0,14.5,6.8,14.5,15.1
	c0,3.9-1.5,7.7-4.1,10.5c-0.1-0.3-0.3-0.6-0.5-1c-1.2-2.5-2.9-4.7-5-6.4c-0.1-0.1-0.2-0.1-0.3-0.2c2.5-2.4,3-6.4,1-9.4
	c-1.3-1.9-3.4-3.1-5.6-3.1c-1.4,0-2.8,0.4-3.9,1.3c-3.1,2.3-3.9,6.7-1.7,10c0.3,0.4,0.6,0.8,1,1.2c-0.1,0.1-0.2,0.1-0.3,0.2
	c-2.1,1.8-3.8,3.9-5,6.4c-0.2,0.3-0.3,0.6-0.5,1C7.5,30.4,6,26.6,6,22.7C6,14.4,12.5,7.6,20.5,7.6z"/>
</svg>
