<?xml version="1.0" encoding="utf-8"?>
<!-- Generator: Adobe Illustrator 21.0.2, SVG Export Plug-In . SVG Version: 6.00 Build 0)  -->
<svg version="1.1" id="Layer_1" xmlns="http://www.w3.org/2000/svg" xmlns:xlink="http://www.w3.org/1999/xlink" x="0px" y="0px"
	 viewBox="0 0 40 40" style="enable-background:new 0 0 40 40;" xml:space="preserve">
<path d="M5.8,17.8h9.2v-0.7c0-1.4,1.1-2.6,2.5-2.6H22c0.5,0,0.9-0.4,0.9-1v-1.2H14c-0.5,0-0.9-0.4-0.9-1V6.4c0-0.5,0.4-1,0.9-1h18.9
	c0.5,0,0.9,0.4,0.9,1v5.1c0,0.5-0.4,1-0.9,1h-8.1v1.2c0,1.6-1.3,2.9-2.8,2.9h-4.4c-0.3,0-0.6,0.3-0.6,0.6v0.7h7.8
	c0.5,0,0.9,0.4,0.9,1v5.1c0,0.5-0.4,1-0.9,1H11.9v6c0,0.4,0.3,0.6,0.6,0.6h0.8v-2.2c0-0.5,0.4-1,0.9-1h18.9c0.5,0,0.9,0.4,0.9,1v5.1
	c0,0.5-0.4,1-0.9,1H14.3c-0.5,0-0.9-0.4-0.9-1v-1h-0.8c-1.4,0-2.5-1.1-2.5-2.6v-6H5.8c-0.5,0-0.9-0.4-0.9-1v-5.1
	C4.9,18.3,5.3,17.8,5.8,17.8z M31.9,7.3H15v3.2h17V7.3z M15.3,33.5h17v-3.2h-17V33.5z M6.8,23h17v-3.2h-17V23z"/>
</svg>
