<?xml version="1.0" encoding="utf-8"?>
<!-- Generator: Adobe Illustrator 21.0.2, SVG Export Plug-In . SVG Version: 6.00 Build 0)  -->
<svg version="1.1" id="Layer_1" xmlns="http://www.w3.org/2000/svg" xmlns:xlink="http://www.w3.org/1999/xlink" x="0px" y="0px"
	 viewBox="0 0 200 200" style="enable-background:new 0 0 200 200;" xml:space="preserve">
<style type="text/css">
	.st0{fill:none;stroke:#39BDAC;stroke-width:5;stroke-miterlimit:10;}
	.st1{fill:#FFFFFF;}
	.st2{fill:#39BDAC;}
</style>
<polyline class="st0" points="135.5,105.5 52,74 149.5,36.5 "/>
<line class="st0" x1="51.5" y1="164.5" x2="51.5" y2="73.5"/>
<circle class="st1" cx="149" cy="36" r="15"/>
<circle class="st1" cx="135" cy="105" r="15"/>
<circle class="st1" cx="52" cy="165" r="15"/>
<circle class="st1" cx="52" cy="74" r="27"/>
<path class="st2" d="M52.1,36c-21,0-38,17-38,38s17,38,38,38s38-17,38-38S73.1,36,52.1,36 M52.1,50.3c6.3,0,12.3,2.5,16.7,6.9
	c4.5,4.5,6.9,10.4,6.9,16.7c0,6.3-2.5,12.3-6.9,16.7c-4.5,4.5-10.4,6.9-16.7,6.9c-6.3,0-12.3-2.5-16.7-6.9
	c-4.5-4.5-6.9-10.4-6.9-16.7c0-6.3,2.5-12.3,6.9-16.7C39.9,52.8,45.8,50.3,52.1,50.3"/>
<path class="st2" d="M149.4,16.5c-10.9,0-19.7,8.8-19.7,19.7s8.8,19.7,19.7,19.7c10.9,0,19.7-8.8,19.7-19.7S160.3,16.5,149.4,16.5
	 M149.4,23.9c3.3,0,6.4,1.3,8.7,3.6c2.3,2.3,3.6,5.4,3.6,8.7c0,3.3-1.3,6.4-3.6,8.7c-2.3,2.3-5.4,3.6-8.7,3.6
	c-3.3,0-6.4-1.3-8.7-3.6c-2.3-2.3-3.6-5.4-3.6-8.7c0-3.3,1.3-6.4,3.6-8.7C143.1,25.2,146.1,23.9,149.4,23.9"/>
<path class="st2" d="M134.9,85c-10.9,0-19.7,8.8-19.7,19.7s8.8,19.7,19.7,19.7s19.7-8.8,19.7-19.7S145.8,85,134.9,85 M134.9,92.4
	c3.3,0,6.4,1.3,8.7,3.6c2.3,2.3,3.6,5.4,3.6,8.7c0,3.3-1.3,6.4-3.6,8.7c-2.3,2.3-5.4,3.6-8.7,3.6c-3.3,0-6.4-1.3-8.7-3.6
	c-2.3-2.3-3.6-5.4-3.6-8.7c0-3.3,1.3-6.4,3.6-8.7C128.6,93.7,131.6,92.4,134.9,92.4"/>
<path class="st2" d="M52.1,145c-10.9,0-19.7,8.8-19.7,19.7c0,10.9,8.8,19.7,19.7,19.7s19.7-8.8,19.7-19.7
	C71.8,153.8,63,145,52.1,145 M52.1,152.4c3.3,0,6.4,1.3,8.7,3.6c2.3,2.3,3.6,5.4,3.6,8.7c0,3.3-1.3,6.4-3.6,8.7
	c-2.3,2.3-5.4,3.6-8.7,3.6c-3.3,0-6.4-1.3-8.7-3.6c-2.3-2.3-3.6-5.4-3.6-8.7c0-3.3,1.3-6.4,3.6-8.7
	C45.8,153.7,48.8,152.4,52.1,152.4"/>
</svg>
